<?xml version="1.0" standalone="no"?>
<!DOCTYPE svg PUBLIC "-//W3C//DTD SVG 20010904//EN"
 "http://www.w3.org/TR/2001/REC-SVG-20010904/DTD/svg10.dtd">
<svg version="1.0" xmlns="http://www.w3.org/2000/svg"
 width="1536.000000pt" height="1024.000000pt" viewBox="0 0 1536.000000 1024.000000"
 preserveAspectRatio="xMidYMid meet">

<g transform="translate(0.000000,1024.000000) scale(0.100000,-0.100000)"
fill="#000000" stroke="none">
<path d="M4850 5520 l0 -450 275 0 275 0 0 65 0 65 -195 0 -195 0 0 385 0 385
-80 0 -80 0 0 -450z"/>
<path d="M7425 5804 l6 -166 -30 25 c-49 41 -122 60 -210 55 -129 -8 -217 -62
-268 -166 -25 -51 -28 -67 -28 -162 0 -164 43 -243 163 -302 59 -29 76 -33
147 -32 90 0 132 15 188 64 l37 32 0 -41 0 -41 75 0 75 0 0 450 0 450 -81 0
-81 0 7 -166z m-86 -235 c67 -37 97 -116 85 -222 -8 -73 -36 -115 -94 -144
-96 -49 -206 -17 -250 72 -30 61 -34 171 -8 220 22 41 69 84 104 95 43 14 119
4 163 -21z"/>
<path d="M7780 5520 l0 -450 83 2 82 2 -77 3 -78 4 0 439 0 440 228 3 227 2
-232 3 -233 2 0 -450z"/>
<path d="M8273 5963 c15 -2 39 -2 55 0 15 2 2 4 -28 4 -30 0 -43 -2 -27 -4z"/>
<path d="M8503 5963 c9 -2 25 -2 35 0 9 3 1 5 -18 5 -19 0 -27 -2 -17 -5z"/>
<path d="M8483 5880 c0 -25 2 -35 4 -22 2 12 2 32 0 45 -2 12 -4 2 -4 -23z"/>
<path d="M8053 5833 c59 -2 154 -2 210 0 56 1 8 3 -108 3 -115 0 -161 -2 -102
-3z"/>
<path d="M8482 5417 l-2 -348 83 3 82 3 1 108 0 107 -3 -105 -4 -105 -74 0
-75 0 -3 343 -2 342 -3 -348z"/>
<path d="M5662 5706 c-72 -24 -146 -88 -179 -153 -25 -53 -28 -68 -28 -163 0
-95 3 -111 28 -162 48 -98 126 -151 251 -169 83 -12 184 -1 240 28 47 23 96
63 96 76 0 7 -18 27 -40 45 l-40 33 -28 -19 c-62 -44 -177 -57 -243 -29 -54
23 -109 98 -109 148 0 5 108 9 240 9 l240 0 0 65 c0 123 -56 223 -154 272 -63
32 -204 42 -274 19z m198 -121 c33 -17 62 -55 78 -102 l11 -33 -171 0 -170 0
6 28 c9 37 36 72 76 100 39 26 125 30 170 7z"/>
<path d="M6340 5704 c-58 -15 -130 -57 -130 -75 0 -17 40 -89 50 -89 5 0 27 9
48 20 106 55 246 46 289 -19 13 -19 23 -47 23 -62 l0 -29 -123 0 c-152 0 -216
-16 -268 -69 -84 -84 -75 -224 19 -288 95 -64 268 -51 349 26 30 28 33 27 33
-14 l0 -35 76 0 76 0 -4 233 c-3 210 -5 236 -24 277 -28 59 -78 104 -137 124
-60 20 -202 20 -277 0z m280 -394 c0 -91 -62 -139 -176 -140 -77 0 -114 24
-114 75 0 51 9 66 54 86 31 14 65 19 139 19 l97 0 0 -40z"/>
<path d="M9138 5713 c7 -3 16 -2 19 1 4 3 -2 6 -13 5 -11 0 -14 -3 -6 -6z"/>
<path d="M10348 5693 c12 -2 30 -2 40 0 9 3 -1 5 -23 4 -22 0 -30 -2 -17 -4z"/>
<path d="M10415 5695 c23 -8 85 -10 85 -3 0 4 -21 8 -47 7 -27 0 -43 -2 -38
-4z"/>
<path d="M8819 5613 l-24 -28 28 24 c15 14 27 26 27 28 0 8 -8 1 -31 -24z"/>
<path d="M9360 5606 c0 -2 8 -10 18 -17 15 -13 16 -12 3 4 -13 16 -21 21 -21
13z"/>
<path d="M9128 5593 c7 -3 16 -2 19 1 4 3 -2 6 -13 5 -11 0 -14 -3 -6 -6z"/>
<path d="M8163 5573 l167 -3 0 -60 0 -60 -197 -3 -198 -2 203 -3 202 -2 0 70
0 70 -172 -2 -173 -2 168 -3z"/>
<path d="M8954 5548 l-19 -23 23 19 c12 11 22 21 22 23 0 8 -8 2 -26 -19z"/>
<path d="M10281 5524 c0 -11 3 -14 6 -6 3 7 2 16 -1 19 -3 4 -6 -2 -5 -13z"/>
<path d="M9681 5494 c0 -11 3 -14 6 -6 3 7 2 16 -1 19 -3 4 -6 -2 -5 -13z"/>
<path d="M9433 5390 c0 -41 2 -58 4 -37 2 20 2 54 0 75 -2 20 -4 3 -4 -38z"/>
<path d="M8903 5395 c0 -33 2 -45 4 -27 2 18 2 45 0 60 -2 15 -4 0 -4 -33z"/>
<path d="M7928 5273 c-1 -87 -4 -122 -5 -78 -3 47 -7 74 -12 66 -7 -11 -12
-11 -32 0 -13 8 -31 14 -39 14 -8 0 -20 11 -27 25 -11 22 -13 9 -13 -92 l0
-118 60 0 c41 0 60 4 60 13 0 8 4 7 10 -3 6 -10 10 42 10 158 0 94 -2 172 -5
172 -3 0 -6 -71 -7 -157z"/>
<path d="M8742 5395 c0 -16 2 -22 5 -12 2 9 2 23 0 30 -3 6 -5 -1 -5 -18z"/>
<path d="M9711 5384 c0 -11 3 -14 6 -6 3 7 2 16 -1 19 -3 4 -6 -2 -5 -13z"/>
<path d="M9271 5344 c0 -11 3 -14 6 -6 3 7 2 16 -1 19 -3 4 -6 -2 -5 -13z"/>
<path d="M8911 5311 c-1 -15 46 -101 55 -101 3 0 -4 15 -15 33 -11 18 -25 44
-30 58 -5 13 -10 18 -10 10z"/>
<path d="M8750 5300 c0 -32 50 -117 91 -155 l44 -40 -43 46 c-24 25 -54 72
-67 105 -14 32 -25 52 -25 44z"/>
<path d="M9421 5294 c0 -11 3 -14 6 -6 3 7 2 16 -1 19 -3 4 -6 -2 -5 -13z"/>
<path d="M10051 5274 c0 -11 3 -14 6 -6 3 7 2 16 -1 19 -3 4 -6 -2 -5 -13z"/>
<path d="M10196 5278 c3 -5 10 -6 15 -3 13 9 11 12 -6 12 -8 0 -12 -4 -9 -9z"/>
<path d="M9238 5250 c-9 -16 -34 -38 -55 -49 -21 -11 -33 -20 -28 -21 29 -1
118 80 104 95 -3 2 -12 -9 -21 -25z"/>
<path d="M9393 5219 c-12 -21 -17 -37 -12 -33 11 6 42 64 37 69 -2 2 -13 -14
-25 -36z"/>
<path d="M10061 5245 c1 -19 18 -51 18 -35 0 8 -4 22 -9 30 -5 8 -9 11 -9 5z"/>
<path d="M9616 5218 c19 -61 43 -122 43 -112 1 14 -40 134 -46 134 -2 0 -1
-10 3 -22z"/>
<path d="M8502 5178 l-2 -58 33 -1 c26 0 28 -2 12 -8 -11 -5 -26 -6 -32 -4 -7
3 -13 1 -13 -4 0 -5 28 -9 62 -9 52 1 63 4 66 19 5 23 -15 47 -40 47 -10 0
-17 -4 -14 -8 3 -5 -1 -9 -9 -9 -8 0 -15 4 -15 8 0 4 -8 6 -17 5 -14 -2 -19 6
-24 38 -6 39 -6 38 -7 -16z m118 -67 c0 -5 -9 -7 -20 -4 -11 3 -20 7 -20 9 0
2 9 4 20 4 11 0 20 -4 20 -9z"/>
<path d="M8994 5196 c11 -9 24 -16 30 -16 12 0 7 5 -24 19 -24 11 -24 11 -6
-3z"/>
<path d="M9063 5173 c15 -2 39 -2 55 0 15 2 2 4 -28 4 -30 0 -43 -2 -27 -4z"/>
<path d="M10306 5165 c-3 -9 -6 -22 -5 -28 0 -7 5 -1 10 12 5 13 8 26 5 28 -2
2 -6 -3 -10 -12z"/>
<path d="M9339 5143 l-24 -28 28 24 c15 14 27 26 27 28 0 8 -8 1 -31 -24z"/>
<path d="M10091 5155 c1 -19 18 -51 18 -35 0 8 -4 22 -9 30 -5 8 -9 11 -9 5z"/>
<path d="M8905 5130 c-2 -3 10 -7 26 -8 16 -1 29 2 29 7 0 9 -49 10 -55 1z"/>
<path d="M9245 5130 c3 -5 8 -10 11 -10 2 0 4 5 4 10 0 6 -5 10 -11 10 -5 0
-7 -4 -4 -10z"/>
<path d="M9836 5125 c-3 -9 -6 -22 -5 -28 0 -7 5 -1 10 12 5 13 8 26 5 28 -2
2 -6 -3 -10 -12z"/>
<path d="M10203 5123 c9 -2 25 -2 35 0 9 3 1 5 -18 5 -19 0 -27 -2 -17 -5z"/>
<path d="M9284 5104 c-18 -14 -18 -15 4 -4 12 6 22 13 22 15 0 8 -5 6 -26 -11z"/>
<path d="M10285 5101 c-6 -19 -14 -21 -85 -21 -43 0 -81 5 -83 10 -3 6 -4 5
-3 -2 2 -9 29 -14 88 -16 81 -3 86 -2 91 20 8 28 1 36 -8 9z"/>
<path d="M8904 5096 c11 -9 24 -16 30 -16 12 0 7 5 -24 19 -24 11 -24 11 -6
-3z"/>
<path d="M8940 5100 c8 -5 22 -9 30 -9 10 0 8 3 -5 9 -27 12 -43 12 -25 0z"/>
<path d="M10215 5100 c-3 -5 -1 -10 4 -10 6 0 11 5 11 10 0 6 -2 10 -4 10 -3
0 -8 -4 -11 -10z"/>
<path d="M10168 5093 c7 -3 16 -2 19 1 4 3 -2 6 -13 5 -11 0 -14 -3 -6 -6z"/>
<path d="M9225 5080 c-13 -6 -15 -9 -5 -9 8 0 22 4 30 9 18 12 2 12 -25 0z"/>
<path d="M9660 5078 c0 -5 39 -7 88 -7 91 2 81 6 -26 11 -34 2 -62 0 -62 -4z"/>
<path d="M8965 5070 c19 -8 73 -14 64 -6 -2 2 -22 6 -44 9 -28 5 -34 4 -20 -3z"/>
<path d="M9168 5063 c6 -2 18 -2 25 0 6 3 1 5 -13 5 -14 0 -19 -2 -12 -5z"/>
<path d="M9073 5053 c15 -2 39 -2 55 0 15 2 2 4 -28 4 -30 0 -43 -2 -27 -4z"/>
</g>
</svg>
