<?xml version="1.0" standalone="no"?>
<!DOCTYPE svg PUBLIC "-//W3C//DTD SVG 20010904//EN"
 "http://www.w3.org/TR/2001/REC-SVG-20010904/DTD/svg10.dtd">
<svg version="1.0" xmlns="http://www.w3.org/2000/svg"
 width="932.000000pt" height="560.000000pt" viewBox="0 0 932.000000 560.000000"
 preserveAspectRatio="xMidYMid meet">

<g transform="translate(0.000000,560.000000) scale(0.100000,-0.100000)"
fill="#000000" stroke="none">
<path d="M2925 3250 c-222 -117 -235 -134 -135 -177 33 -15 60 -30 60 -35 0
-18 -59 -95 -130 -171 -190 -203 -459 -363 -692 -411 -82 -17 -303 -22 -312
-7 -3 5 22 11 57 15 115 12 147 18 147 28 0 6 -7 8 -15 4 -18 -7 -20 10 -2 17
6 3 -4 3 -23 0 -19 -3 -39 -12 -43 -20 -4 -7 -18 -13 -30 -12 -21 1 -21 1 3
10 16 5 2 6 -40 3 -135 -12 -329 35 -392 94 l-27 25 12 -32 c18 -49 141 -161
218 -198 104 -51 183 -66 354 -67 214 -1 341 28 540 124 175 84 378 254 502
418 30 41 61 76 69 79 7 3 27 -5 43 -16 35 -25 67 -27 75 -5 3 9 6 100 6 204
0 104 -3 195 -6 204 -13 34 -67 17 -239 -74z"/>
<path d="M3510 2910 l0 -290 173 0 173 0 -4 40 -4 40 -114 0 -114 0 0 250 0
250 -55 0 -55 0 0 -290z"/>
<path d="M5049 3078 c0 -62 -3 -107 -6 -100 -8 20 -79 52 -115 52 -94 0 -156
-49 -184 -146 -41 -140 42 -274 169 -274 45 0 96 20 117 45 14 17 15 16 20 -6
5 -21 13 -24 53 -27 l47 -3 0 285 0 286 -50 0 -50 0 -1 -112z m-56 -139 c33
-15 48 -44 54 -104 13 -121 -87 -190 -168 -117 -25 23 -33 38 -36 79 -3 28 0
67 7 87 18 56 84 82 143 55z"/>
<path d="M4010 3019 c-79 -31 -139 -144 -125 -232 22 -137 162 -212 300 -160
48 18 50 20 53 61 l3 43 -33 -17 c-21 -11 -56 -18 -95 -18 -55 -1 -65 2 -92
28 -17 17 -31 38 -31 48 0 16 13 18 138 20 l137 3 3 34 c8 80 -42 164 -111
190 -35 13 -113 13 -147 0z m129 -86 c12 -10 23 -31 24 -48 l2 -29 -85 1 c-99
1 -111 13 -62 63 36 35 87 40 121 13z"/>
<path d="M4398 3008 c-43 -19 -48 -24 -48 -54 0 -42 10 -48 50 -27 52 25 111
28 137 7 36 -31 34 -57 -7 -65 -19 -4 -62 -13 -94 -19 -70 -14 -111 -49 -121
-103 -15 -76 43 -132 135 -132 51 0 63 4 89 29 l29 28 4 -23 c3 -21 9 -24 53
-27 l50 -3 -6 153 c-4 118 -9 161 -23 186 -35 68 -155 92 -248 50z m167 -241
c-14 -68 -99 -102 -140 -57 -15 16 -16 25 -7 45 11 23 45 37 112 47 36 6 42 0
35 -35z"/>
<path d="M2632 2955 c0 -16 2 -22 5 -12 2 9 2 23 0 30 -3 6 -5 -1 -5 -18z"/>
<path d="M2621 2904 c0 -11 3 -14 6 -6 3 7 2 16 -1 19 -3 4 -6 -2 -5 -13z"/>
<path d="M5271 2792 c0 -13 -5 -20 -11 -17 -6 4 -10 -23 -10 -74 l0 -81 55 0
55 0 -2 93 c-1 88 -2 89 -8 32 -6 -55 -7 -56 -8 -16 -2 35 -5 41 -15 32 -17
-13 -43 4 -50 34 -4 18 -5 17 -6 -3z"/>
<path d="M2519 2763 l-34 -38 38 34 c34 33 42 41 34 41 -2 0 -19 -17 -38 -37z"/>
<path d="M2459 2713 c-13 -16 -12 -17 4 -4 9 7 17 15 17 17 0 8 -8 3 -21 -13z"/>
<path d="M2379 2663 c-13 -15 -12 -15 9 -4 23 12 28 21 13 21 -5 0 -15 -7 -22
-17z"/>
<path d="M6470 2633 c-14 -7 -18 -13 -10 -13 17 0 47 17 40 23 -3 2 -16 -2
-30 -10z"/>
<path d="M6756 2633 c-6 -14 -5 -15 5 -6 7 7 10 15 7 18 -3 3 -9 -2 -12 -12z"/>
<path d="M2290 2620 c-19 -11 -30 -19 -25 -19 6 0 26 8 45 19 19 11 31 19 25
19 -5 0 -26 -8 -45 -19z"/>
<path d="M5693 2623 c15 -2 37 -2 50 0 12 2 0 4 -28 4 -27 0 -38 -2 -22 -4z"/>
<path d="M6668 2623 c6 -2 18 -2 25 0 6 3 1 5 -13 5 -14 0 -19 -2 -12 -5z"/>
<path d="M6003 2613 c9 -2 25 -2 35 0 9 3 1 5 -18 5 -19 0 -27 -2 -17 -5z"/>
<path d="M2210 2585 c-14 -8 -20 -14 -15 -14 6 0 21 6 35 14 14 8 21 14 15 14
-5 0 -21 -6 -35 -14z"/>
<path d="M2115 2550 c-13 -6 -15 -9 -5 -9 8 0 22 4 30 9 18 12 2 12 -25 0z"/>
<path d="M1960 2540 c-9 -6 -10 -10 -3 -10 6 0 15 5 18 10 8 12 4 12 -15 0z"/>
<path d="M2052 2529 c-13 -5 -28 -7 -33 -3 -5 3 -9 0 -9 -5 0 -6 -10 -11 -22
-11 -23 0 -63 -20 -42 -20 17 0 144 40 144 45 0 7 -11 5 -38 -6z"/>
</g>
</svg>
